<svg width="16" height="18" viewBox="0 0 14 16" fill="none" xmlns="http://www.w3.org/2000/svg">
<path d="M15.3439 7C15.3439 7.55228 14.8962 8 14.3439 8H9.77524C9.22295 8 8.77524 8.44772 8.77524 9V13C8.77524 13.5523 8.32752 14 7.77524 14H7.58569C7.0334 14 6.58568 13.5523 6.58568 13V9C6.58568 8.44772 6.13797 8 5.58568 8H1.01703C0.464745 8 0.0170288 7.55228 0.0170288 7C0.0170288 6.44772 0.464744 6 1.01703 6H5.58568C6.13797 6 6.58568 5.55228 6.58568 5V1C6.58568 0.447715 7.0334 0 7.58569 0H7.77524C8.32752 0 8.77524 0.447715 8.77524 1V5C8.77524 5.55228 9.22295 6 9.77524 6H14.3439C14.8962 6 15.3439 6.44772 15.3439 7Z" fill="white"/>
</svg>
