<svg width="17" height="16" viewBox="0 0 17 16" fill="none" xmlns="http://www.w3.org/2000/svg">
<path d="M5.40519 8.70011L8.20514 15C8.76209 15 9.29622 14.7788 9.69004 14.3849C10.0839 13.9911 10.3051 13.457 10.3051 12.9L10.3051 10.1001H14.267C14.47 10.1024 14.671 10.0605 14.8561 9.97744C15.0413 9.89434 15.2061 9.77198 15.3393 9.61884C15.4725 9.46569 15.5708 9.28543 15.6273 9.09053C15.6839 8.89563 15.6975 8.69076 15.667 8.49012L14.701 2.19023C14.6504 1.8564 14.4808 1.55212 14.2236 1.33344C13.9663 1.11477 13.6387 0.996436 13.3011 1.00025L5.40519 1.00025M5.40519 8.70011L5.40519 1.00025M5.40519 8.70011L3.53623 8.70011C3.14006 8.70712 2.75511 8.56842 2.45446 8.31035C2.1538 8.05227 1.95837 7.69279 1.90526 7.30014V2.40023C1.95837 2.00758 2.1538 1.64809 2.45446 1.39002C2.75511 1.13195 3.14006 0.993247 3.53623 1.00025L5.40519 1.00025" stroke="#184C92" stroke-width="2" stroke-linecap="round" stroke-linejoin="round"/>
</svg>
